solid trust_node
facet normal 0.7562024778308658 -0.0 0.6543376899754888
  outer loop
    vertex 191.57102399999997 191.57102399999994 1.6417220000000003
    vertex 95.78551199999997 95.78551199999997 112.33875599999998
    vertex 191.57102399999997 0.0 1.6417220000000003
  endloop
endfacet
facet normal 0.0 0.0 -1.0
  outer loop
    vertex 191.57102399999997 191.57102399999994 1.6417220000000003
    vertex 0.0 0.0 1.6417220000000003
    vertex 0.0 191.57102399999994 1.6417220000000003
  endloop
endfacet
facet normal 0.0 0.0 -1.0
  outer loop
    vertex 0.0 0.0 1.6417220000000003
    vertex 191.57102399999997 191.57102399999994 1.6417220000000003
    vertex 191.57102399999997 0.0 1.6417220000000003
  endloop
endfacet
facet normal 1.4071390398370424e-17 -0.7562024778308659 0.6543376899754886
  outer loop
    vertex 95.78551199999997 95.78551199999997 112.33875599999998
    vertex 0.0 0.0 1.6417220000000003
    vertex 191.57102399999997 0.0 1.6417220000000003
  endloop
endfacet
facet normal -0.7562024778308659 0.0 0.6543376899754887
  outer loop
    vertex 0.0 191.57102399999994 1.6417220000000003
    vertex 0.0 0.0 1.6417220000000003
    vertex 95.78551199999997 95.78551199999997 112.33875599999998
  endloop
endfacet
facet normal 1.4071390398370424e-17 0.7562024778308659 0.6543376899754886
  outer loop
    vertex 95.78551199999997 95.78551199999997 112.33875599999998
    vertex 191.57102399999997 191.57102399999994 1.6417220000000003
    vertex 0.0 191.57102399999994 1.6417220000000003
  endloop
endfacet
facet normal 0.7562024778308678 -1.9461137118241585e-17 -0.6543376899754865
  outer loop
    vertex 129.79433409038538 129.49779461391756 153.06012730081332
    vertex 129.79433409038538 60.292762193917405 153.06012730081332
    vertex 95.1918178803857 94.89527840391784 113.07082376831312
  endloop
endfacet
facet normal -0.7562024778308651 4.15321856892512e-18 -0.6543376899754896
  outer loop
    vertex 60.589301670385524 129.49779461391756 153.06012730081332
    vertex 95.1918178803857 94.89527840391784 113.07082376831312
    vertex 60.589301670385524 60.292762193917405 153.06012730081332
  endloop
endfacet
facet normal 1.1001310497780386e-17 -0.7562024778308629 -0.6543376899754921
  outer loop
    vertex 60.589301670385524 60.292762193917405 153.06012730081332
    vertex 95.1918178803857 94.89527840391784 113.07082376831312
    vertex 129.79433409038538 60.292762193917405 153.06012730081332
  endloop
endfacet
facet normal 1.100131049779508e-17 0.7562024778308678 -0.6543376899754865
  outer loop
    vertex 129.79433409038538 129.49779461391756 153.06012730081332
    vertex 95.1918178803857 94.89527840391784 113.07082376831312
    vertex 60.589301670385524 129.49779461391756 153.06012730081332
  endloop
endfacet
facet normal -0.0 1.0 -0.0
  outer loop
    vertex 60.589301670385524 129.49779461391756 393.295448588313
    vertex 129.79433409038538 129.49779461391756 153.06012730081332
    vertex 60.589301670385524 129.49779461391756 153.06012730081332
  endloop
endfacet
facet normal -0.0 1.0 -0.0
  outer loop
    vertex 129.79433409038538 129.49779461391756 153.06012730081332
    vertex 60.589301670385524 129.49779461391756 393.295448588313
    vertex 129.79433409038538 129.49779461391756 333.5488215451572
  endloop
endfacet
facet normal -1.0 0.0 0.0
  outer loop
    vertex 60.589301670385524 129.49779461391756 393.295448588313
    vertex 60.589301670385524 60.292762193917405 153.06012730081332
    vertex 60.589301670385524 60.292762193917405 393.295448588313
  endloop
endfacet
facet normal -1.0 0.0 0.0
  outer loop
    vertex 60.589301670385524 60.292762193917405 153.06012730081332
    vertex 60.589301670385524 129.49779461391756 393.295448588313
    vertex 60.589301670385524 129.49779461391756 153.06012730081332
  endloop
endfacet
facet normal 1.0 0.0 0.0
  outer loop
    vertex 129.79433409038538 129.49779461391756 153.06012730081332
    vertex 129.79433409038538 60.292762193917405 333.5488215451572
    vertex 129.79433409038538 60.292762193917405 153.06012730081332
  endloop
endfacet
facet normal 1.0 0.0 0.0
  outer loop
    vertex 129.79433409038538 60.292762193917405 333.5488215451572
    vertex 129.79433409038538 129.49779461391756 153.06012730081332
    vertex 129.79433409038538 129.49779461391756 333.5488215451572
  endloop
endfacet
facet normal 0.0 -1.0 0.0
  outer loop
    vertex 129.79433409038538 60.292762193917405 333.5488215451572
    vertex 60.589301670385524 60.292762193917405 153.06012730081332
    vertex 129.79433409038538 60.292762193917405 153.06012730081332
  endloop
endfacet
facet normal 0.0 -1.0 0.0
  outer loop
    vertex 60.589301670385524 60.292762193917405 153.06012730081332
    vertex 129.79433409038538 60.292762193917405 333.5488215451572
    vertex 60.589301670385524 60.292762193917405 393.295448588313
  endloop
endfacet
facet normal 0.6534860708374916 -7.49142774125782e-32 0.7569385412445168
  outer loop
    vertex 129.79433409038538 60.292762193917405 333.5488215451572
    vertex 60.589301670385524 129.49779461391756 393.295448588313
    vertex 60.589301670385524 60.292762193917405 393.295448588313
  endloop
endfacet
facet normal 0.6534860708374916 -7.49142774125782e-32 0.7569385412445168
  outer loop
    vertex 60.589301670385524 129.49779461391756 393.295448588313
    vertex 129.79433409038538 60.292762193917405 333.5488215451572
    vertex 129.79433409038538 129.49779461391756 333.5488215451572
  endloop
endfacet
endsolid trust_node
